<svg width="13" height="12" viewBox="0 0 13 12" fill="none" xmlns="http://www.w3.org/2000/svg">
<path d="M10.5814 9.26158L10.5419 9.12993L10.4629 8.91928L10.4102 8.78762L10.2654 8.5243L10.0679 8.27415L9.8046 8.03717L9.50178 7.76069L9.25164 7.52371L9.01465 7.26039L8.81717 6.99708L8.63285 6.7206L8.43536 6.35196L8.31687 6.10181L8.17205 5.82533L7.98773 5.52252L7.77707 5.24604L7.63225 5.10121L7.48743 4.96956L7.28994 4.82473L7.05296 4.71941L6.75015 4.61408L6.44734 4.57458H6.13136L5.82855 4.61408L5.39408 4.77207L4.97277 5.06172L4.69629 5.3382L4.52514 5.60151L4.35398 5.90432L4.13017 6.36512L3.91952 6.77326L3.68253 7.08924L3.39289 7.45788L2.53711 8.24782L2.45812 8.31365L2.26063 8.59013L2.10265 8.90611L2.01049 9.30108L1.95782 9.65656L1.94466 10.0515L1.98415 10.3148L2.10265 10.6835L2.2738 11.0258L2.45812 11.2628L2.6951 11.4998L3.01108 11.7104L3.37972 11.8816L3.6562 11.9474L4.0775 11.9606L4.48564 11.8684L4.73579 11.7499L4.84112 11.6709L5.0781 11.5393L5.30192 11.4076L5.4994 11.2891L5.71005 11.1969L5.88121 11.118L6.0787 11.0653L6.28935 11.0521L6.5395 11.0916L6.72382 11.1311L7.02663 11.2759L7.39527 11.4603L7.69808 11.6577L7.97456 11.8157L8.25104 11.9342L8.51436 11.9869L8.73817 12.0001L8.92249 11.9869L9.21214 11.9079L9.58078 11.7367L9.84409 11.5524L10.1206 11.2759L10.3181 11.0126L10.4892 10.6572L10.5945 10.3148L10.634 10.0252V9.72239L10.6209 9.55123L10.5814 9.26158Z" fill="#B5B0AD"/>
<path d="M9.52954 2.32088C9.64734 1.20727 9.10973 0.23754 8.32876 0.154927C7.54779 0.0723141 6.81919 0.908103 6.70139 2.02171C6.58359 3.13533 7.1212 4.10506 7.90217 4.18767C8.68314 4.27028 9.41174 3.43449 9.52954 2.32088Z" fill="#B5B0AD"/>
<path d="M4.67247 4.18235C5.45344 4.09974 5.99105 3.13001 5.87325 2.0164C5.75545 0.902787 5.02685 0.0669979 4.24588 0.149611C3.46491 0.232223 2.9273 1.20195 3.0451 2.31556C3.1629 3.42917 3.8915 4.26496 4.67247 4.18235Z" fill="#B5B0AD"/>
<path d="M12.139 5.62151C12.3809 4.5356 11.9555 3.5169 11.189 3.34618C10.4225 3.17546 9.60503 3.91736 9.36318 5.00327C9.12132 6.08918 9.54665 7.10788 10.3132 7.2786C11.0797 7.44933 11.8971 6.70742 12.139 5.62151Z" fill="#B5B0AD"/>
<path d="M2.26376 7.27821C3.03028 7.10749 3.45561 6.08879 3.21375 5.00288C2.97189 3.91697 2.15444 3.17506 1.38792 3.34579C0.621391 3.51651 0.196064 4.53521 0.437921 5.62112C0.679778 6.70703 1.49723 7.44893 2.26376 7.27821Z" fill="#B5B0AD"/>
</svg>
