<svg width="8" height="13" viewBox="0 0 8 13" fill="none" xmlns="http://www.w3.org/2000/svg">
<g clip-path="url(#clip0_1_939)">
<path d="M4.82065 12.6427V7.05802H6.69993C6.79423 6.33002 6.88749 5.61533 6.98284 4.879H4.8348C4.8348 4.2966 4.82904 3.73513 4.83952 3.17301C4.84888 3.0565 4.88471 2.94349 4.94429 2.84268C5.01836 2.71874 5.12517 2.61742 5.25316 2.54941C5.38115 2.48141 5.52543 2.44945 5.67045 2.45699C6.06181 2.43775 6.45631 2.44289 6.84663 2.43821C6.91054 2.43821 6.97498 2.43821 7.041 2.43821V0.492267C6.34331 0.410563 5.63965 0.391491 4.93853 0.435138C4.40192 0.474256 3.89088 0.678204 3.4763 1.01862C3.19126 1.26361 2.96237 1.56641 2.80504 1.90653C2.64771 2.24664 2.56558 2.6162 2.56418 2.99045C2.53589 3.56245 2.55003 4.13435 2.54584 4.70635C2.54584 4.76095 2.54584 4.81557 2.54584 4.88941H0.668152V7.06717H2.53693V12.6432" fill="#867D77"/>
</g>
<defs>
<clipPath id="clip0_1_939">
<rect width="7.33472" height="13" fill="white" transform="translate(0.165283)"/>
</clipPath>
</defs>
</svg>
