<svg width="8" height="13" viewBox="0 0 8 13" fill="none" xmlns="http://www.w3.org/2000/svg">
<path d="M5.32065 12.6427V7.05802H7.19993C7.29423 6.33002 7.38749 5.61533 7.48284 4.879H5.3348C5.3348 4.2966 5.32904 3.73513 5.33952 3.17301C5.34888 3.0565 5.38471 2.94349 5.44429 2.84268C5.51836 2.71874 5.62517 2.61742 5.75316 2.54941C5.88115 2.48141 6.02543 2.44945 6.17045 2.45699C6.56181 2.43775 6.95631 2.44289 7.34663 2.43821C7.41054 2.43821 7.47498 2.43821 7.541 2.43821V0.492267C6.84331 0.410563 6.13965 0.391491 5.43853 0.435138C4.90192 0.474256 4.39088 0.678204 3.9763 1.01862C3.69126 1.26361 3.46237 1.56641 3.30504 1.90653C3.14771 2.24664 3.06558 2.6162 3.06418 2.99045C3.03589 3.56245 3.05003 4.13435 3.04584 4.70635C3.04584 4.76095 3.04584 4.81557 3.04584 4.88941H1.16815V7.06718H3.03693V12.6432" fill="#F8F5F3"/>
</svg>
