<svg width="14" height="13" viewBox="0 0 14 13" fill="none" xmlns="http://www.w3.org/2000/svg">
<g clip-path="url(#clip0_1_935)">
<path d="M0.679535 9.39687V3.90009C0.687175 3.82371 0.694265 3.74714 0.702452 3.6713C0.742678 3.28968 0.847093 2.91761 1.01134 2.57025C1.35828 1.82082 1.95611 1.2139 2.70313 0.852682C3.07339 0.669209 3.47406 0.553563 3.88575 0.511759L4.12423 0.489014H9.6471C9.66075 0.492081 9.67461 0.494365 9.68858 0.495626C9.9352 0.507829 10.1798 0.54611 10.4182 0.609886C11.1753 0.813227 11.8452 1.25561 12.3266 1.87016C12.808 2.48471 13.0749 3.23808 13.0869 4.01646C13.0994 5.76385 13.0913 7.51143 13.0902 9.25885C13.0889 9.60698 13.0352 9.95267 12.9308 10.285C12.7025 11.0137 12.2461 11.6514 11.6277 12.105C11.0094 12.5585 10.2615 12.8045 9.49266 12.8071C7.76703 12.8071 6.04125 12.8071 4.31524 12.8071C4.20064 12.8071 4.08548 12.8018 3.97087 12.7932C3.56446 12.7614 3.16699 12.6581 2.797 12.4882C2.08186 12.1671 1.49228 11.6222 1.11831 10.9373C0.89231 10.531 0.750887 10.0839 0.702452 9.62225C0.69372 9.54425 0.687175 9.47162 0.679535 9.39687ZM6.88512 1.43429C6.03595 1.43429 5.1866 1.43429 4.33707 1.43429C4.22792 1.43429 4.11878 1.43854 4.00963 1.44883C3.64002 1.47839 3.28213 1.59179 2.96345 1.77997C2.55161 2.00622 2.21005 2.3401 1.97579 2.74534C1.74153 3.15058 1.62352 3.61154 1.63458 4.07862C1.62475 5.79029 1.63185 7.50222 1.63185 9.21389C1.63142 9.40884 1.65191 9.60319 1.69297 9.79391C1.81894 10.3754 2.14124 10.8969 2.60651 11.2718C3.07178 11.6467 3.6521 11.8527 4.25139 11.8555C5.98902 11.862 7.7261 11.8555 9.46373 11.8555C9.62003 11.8555 9.77606 11.8429 9.93034 11.818C10.4136 11.7443 10.8649 11.5328 11.2292 11.2091C11.5187 10.9623 11.7498 10.6552 11.906 10.3096C12.0622 9.96405 12.1397 9.58862 12.1329 9.20988C12.1358 7.50006 12.1358 5.78996 12.1329 4.07941C12.1333 3.97283 12.1276 3.86612 12.116 3.76017C12.0433 3.12456 11.7387 2.53732 11.2598 2.10925C10.7808 1.68118 10.1606 1.44184 9.51612 1.4364C8.64076 1.42882 7.76267 1.43693 6.88458 1.43693L6.88512 1.43429Z" fill="#867D77"/>
<path d="M6.889 3.33179C7.54972 3.33264 8.19544 3.52802 8.7444 3.89302C9.29335 4.25803 9.72094 4.77643 9.97318 5.38261C10.2254 5.98878 10.2909 6.65541 10.1614 7.29853C10.0318 7.94165 9.71314 8.53212 9.24555 8.99546C8.7779 9.45886 8.1824 9.77438 7.53422 9.90189C6.8861 10.0294 6.21441 9.96331 5.60409 9.71198C4.99378 9.46065 4.47224 9.03528 4.10539 8.48976C3.73854 7.9443 3.54285 7.30319 3.54306 6.64739C3.54552 5.76783 3.89899 4.92519 4.5261 4.30377C5.15321 3.68236 6.00283 3.33278 6.889 3.33179ZM6.889 4.27917C6.41677 4.27885 5.95508 4.41759 5.5623 4.67775C5.16952 4.93792 4.86332 5.30779 4.68241 5.7407C4.50151 6.17365 4.45403 6.65026 4.546 7.10998C4.63796 7.56969 4.86523 7.99192 5.19905 8.32342C5.53288 8.65492 5.95824 8.88074 6.42141 8.97223C6.88452 9.06371 7.36455 9.0167 7.80082 8.8373C8.23708 8.65795 8.60998 8.35424 8.87226 7.96451C9.13454 7.57478 9.27453 7.11658 9.27442 6.64788C9.27518 6.33637 9.21389 6.02789 9.09405 5.73994C8.97421 5.45199 8.79815 5.19016 8.57604 4.97001C8.35392 4.74985 8.09011 4.57548 7.79983 4.45691C7.50956 4.33834 7.19854 4.27796 6.88463 4.27917H6.889Z" fill="#867D77"/>
<path d="M10.4673 2.38428C10.6092 2.38472 10.7478 2.42696 10.8655 2.50568C10.9832 2.5844 11.0747 2.6961 11.1284 2.8265C11.1821 2.9569 11.1956 3.1003 11.1671 3.2383C11.1386 3.37631 11.0694 3.50275 10.9685 3.60171C10.8675 3.70067 10.7391 3.76752 10.5997 3.79399C10.4603 3.82046 10.3161 3.80532 10.1855 3.75035C10.0548 3.69538 9.94348 3.60317 9.86571 3.48534C9.78794 3.3675 9.74717 3.22947 9.74854 3.0886C9.75045 2.90083 9.82707 2.72144 9.9617 2.58952C10.0963 2.4576 10.2781 2.3837 10.4673 2.38428Z" fill="#867D77"/>
</g>
<defs>
<clipPath id="clip0_1_935">
<rect width="13.0977" height="13" fill="white" transform="translate(0.5)"/>
</clipPath>
</defs>
</svg>
