<svg width="18" height="13" viewBox="0 0 18 13" fill="none" xmlns="http://www.w3.org/2000/svg">
<path d="M5.93389 10.1114C5.72543 10.1084 5.51804 10.0811 5.31611 10.0296C4.99541 9.94858 4.68653 9.82703 4.39708 9.66778C3.79573 9.34636 3.26422 8.91021 2.833 8.38452C2.60421 8.11385 2.42387 7.80613 2.29981 7.47495C2.29326 7.45654 2.28781 7.43769 2.28071 7.41494C2.74814 7.50713 3.23127 7.48313 3.68708 7.34511C2.97121 7.20688 2.32702 6.82344 1.86704 6.26178C1.39811 5.70181 1.14869 4.99259 1.16467 4.26463C1.6184 4.46167 2.10021 4.58755 2.59287 4.63782C2.49791 4.56469 2.40896 4.50087 2.32492 4.43099C1.73579 3.9632 1.33926 3.29776 1.20997 2.56002C1.09426 1.95674 1.1771 1.33246 1.44628 0.779498C1.4943 0.681998 1.55542 0.590954 1.61763 0.488037L1.74316 0.634298C2.32607 1.32788 2.98502 1.95494 3.70782 2.50368C4.59199 3.17806 5.59861 3.67725 6.67278 3.97422C7.37711 4.16411 8.10354 4.26129 8.83336 4.26304C8.84809 4.26304 8.86288 4.26312 8.88253 4.25987C8.82446 4.0056 8.80498 3.7441 8.82468 3.48413C8.83833 2.83253 9.07136 2.20426 9.48661 1.69938C9.99174 1.05781 10.7299 0.637928 11.5429 0.529826C12.0032 0.460825 12.4729 0.48797 12.922 0.609701C13.3711 0.73143 13.7895 0.94515 14.1505 1.23679C14.245 1.30938 14.3312 1.39268 14.4234 1.46743C14.4444 1.48299 14.4705 1.4902 14.4965 1.48753C15.1736 1.3621 15.8239 1.12204 16.4191 0.777916L16.459 0.757284C16.4656 0.755513 16.4723 0.7545 16.4792 0.75411C16.2055 1.45126 15.7102 2.04086 15.0685 2.43333C15.6874 2.3645 16.2923 2.20326 16.8629 1.9554C16.8148 2.01986 16.7673 2.08484 16.7182 2.14821C16.3136 2.68881 15.8251 3.16236 15.2709 3.55078C15.2589 3.55898 15.2494 3.57014 15.2435 3.58331C15.2375 3.59649 15.2353 3.61103 15.2371 3.62537C15.2311 3.92437 15.2338 4.22134 15.2152 4.52197C15.1678 5.23168 15.0286 5.93218 14.801 6.60666C14.3394 8.02929 13.5256 9.31456 12.4341 10.3444C11.6365 11.0996 10.6989 11.6943 9.67325 12.0955C9.06312 12.335 8.42902 12.5094 7.78172 12.616C7.05917 12.7311 6.32684 12.775 5.59552 12.7467C5.1562 12.7326 4.71798 12.7064 4.28139 12.6528C3.39236 12.558 2.52548 12.3167 1.71641 11.9389C1.53414 11.8506 1.35732 11.751 1.17777 11.6562L1.18268 11.6411H1.23998C1.60072 11.6335 1.96255 11.6409 2.32273 11.6165C3.23439 11.5698 4.11959 11.2965 4.89698 10.8215C5.24134 10.6097 5.56824 10.3703 5.90277 10.1434C5.9055 10.1331 5.91206 10.1265 5.93389 10.1114Z" fill="#867D77"/>
</svg>
